<svg width="143px" height="40px" viewBox="0 0 143 40" version="1.1" xmlns="http://www.w3.org/2000/svg" xmlns:xlink="http://www.w3.org/1999/xlink">
  <g id="Page-1" stroke="none" stroke-width="1" fill="none" fill-rule="evenodd">
    <g id="Group-5">
      <rect id="Rectangle-Copy-2" fill-opacity="0" fill="#FFFFFF" x="0" y="0" width="143" height="40"></rect>
      <g id="Group" transform="translate(0.000000, 11.000000)">
        <g transform="translate(35.547696, 0.168290)">
          <path d="M24.0218113,8.33402621 C22.0732197,8.33402621 20.6329563,9.83655498 20.6329563,12.2085471 C20.6329563,14.5805391 21.9683265,16.159196 23.9935709,16.159196 C25.9421625,16.159196 27.3057733,14.5524919 27.3057733,12.1845066 C27.3057733,9.81652126 25.9744373,8.33402621 24.0218113,8.33402621 Z" id="Path"></path>
          <path d="M79.0543969,8.1296823 C77.4366221,8.1296823 76.4159312,9.1914693 76.0972175,10.3333912 C76.0205648,10.6058497 76.2222824,10.882315 76.5087213,10.882315 L81.6565535,10.882315 C81.9187863,10.882315 82.1285726,10.6459171 82.0801604,10.3934923 C81.846168,9.14739512 80.8738894,8.1296823 79.0543969,8.1296823 Z" id="Path"></path>
          <path d="M38.6463346,8.33402621 C36.697743,8.33402621 35.2574796,9.83655498 35.2574796,12.2085471 C35.2574796,14.5805391 36.5928498,16.159196 38.6180942,16.159196 C40.566686,16.159196 41.9262624,14.5524919 41.9262624,12.1845066 C41.9262624,9.81652126 40.5989608,8.33402621 38.6463346,8.33402621 Z" id="Path"></path>
          <path d="M9.00595597,4.76001113 C8.86878803,4.39139074 8.34432236,4.39139074 8.20715442,4.76001113 L6.0487765,10.5136946 C5.94388337,10.7901599 6.14963528,11.0866589 6.44817728,11.0866589 L10.7608988,11.0866589 C11.0594408,11.0866589 11.2651927,10.7901599 11.1602995,10.5136946 L9.00595597,4.76001113 Z" id="Path"></path>
          <path d="M10.5591812,0.65309917 C10.4946316,0.488822691 10.3372919,0.384647364 10.1597804,0.384647364 L7.17839485,0.384647364 C7.0008834,0.384647364 6.8435437,0.492829435 6.77899408,0.65309917 L0.0295244286,17.8740822 C-0.0794030553,18.1505475 0.126348859,18.4510532 0.428925201,18.4510532 L2.76481458,18.4510532 C2.94232603,18.4510532 3.10370008,18.3388644 3.16421535,18.1745879 L4.65289097,14.191885 C4.71340624,14.0276085 4.87478029,13.9154197 5.05229174,13.9154197 L12.1567843,13.9154197 C12.3342958,13.9154197 12.4916355,14.0236018 12.5561851,14.1878783 L14.0690668,18.1745879 C14.1336164,18.3388644 14.2909561,18.4470465 14.4684676,18.4470465 L16.9092501,18.4470465 C17.2077921,18.4470465 17.4175783,18.1465407 17.3086508,17.8700754 L10.5591812,0.65309917 Z M10.7608988,11.0866589 L6.44817728,11.0866589 C6.14963528,11.0866589 5.94388337,10.7901599 6.0487765,10.5136946 L8.20715442,4.76001113 C8.34432236,4.39139074 8.86878803,4.39139074 9.00595597,4.76001113 L11.1643339,10.5136946 C11.2651927,10.7901599 11.0594408,11.0866589 10.7608988,11.0866589 Z" id="Shape" fill="#748ab7" fill-rule="nonzero"></path>
          <path d="M30.1822657,0.424714797 C30.1822657,0.192323682 29.9926512,0 29.7546245,0 L27.7092084,0 C27.475216,0 27.2815671,0.188316939 27.2815671,0.424714797 L27.2815671,6.31462756 C27.2815671,6.67523446 26.8579603,6.85553791 26.57959,6.62314679 C25.9744373,6.11829713 25.0142617,5.70960931 23.6143419,5.70960931 C20.1004219,5.70960931 17.6636738,8.63853871 17.6636738,12.2085471 C17.6636738,15.9548521 20.0762158,18.7555657 23.6667884,18.7555657 C24.9416434,18.7555657 25.9744373,18.3068105 26.6723801,17.6657315 C26.9346129,17.4253269 27.3622542,17.5735764 27.3985633,17.9261698 C27.4025977,17.9742508 27.406632,18.0263384 27.4147007,18.0704126 C27.4389068,18.2867768 27.6204527,18.4470465 27.8383076,18.4470465 L29.8393458,18.4470465 C30.0894756,18.4470465 30.2871588,18.2346891 30.2629527,17.9902777 C30.2266436,17.5655629 30.1822657,16.9124638 30.1822657,16.1792297 L30.1822657,0.424714797 L30.1822657,0.424714797 Z M23.9976052,16.1551893 C21.9723609,16.1551893 20.6369906,14.5765324 20.6369906,12.2045403 C20.6369906,9.83655498 22.0732197,8.33001947 24.0258457,8.33001947 C25.9744373,8.33001947 27.3098076,9.80850778 27.3098076,12.1764931 C27.3098076,14.5444784 25.9461969,16.1551893 23.9976052,16.1551893 Z" id="Shape" fill="#748ab7" fill-rule="nonzero"></path>
          <path d="M44.8067892,0.424714797 C44.8067892,0.192323682 44.6171746,0 44.3791479,0 L42.3337318,0 C42.0997395,0 41.9060906,0.188316939 41.9060906,0.424714797 L41.9060906,6.31462756 C41.9060906,6.6792412 41.4824837,6.85553791 41.2041135,6.62314679 C40.5989608,6.11829713 39.638785,5.70960931 38.2388652,5.70960931 C34.7249452,5.70960931 32.2881971,8.63853871 32.2881971,12.2085471 C32.2881971,15.9548521 34.7007391,18.7555657 38.2913117,18.7555657 C39.5661667,18.7555657 40.5989608,18.3068105 41.2969036,17.6657315 C41.5591364,17.4253269 41.9867776,17.5735764 42.0230868,17.9261698 C42.0271211,17.9742508 42.0311555,18.0263384 42.0392242,18.0704126 C42.0634303,18.2867768 42.2449761,18.4470465 42.4628311,18.4470465 L44.4638693,18.4470465 C44.7139991,18.4470465 44.9116823,18.2346891 44.8874762,17.9902777 C44.851167,17.5655629 44.8067892,16.9124638 44.8067892,16.1792297 L44.8067892,0.424714797 L44.8067892,0.424714797 Z M38.6221285,16.1551893 C36.5968842,16.1551893 35.2615139,14.5765324 35.2615139,12.2045403 C35.2615139,9.83655498 36.697743,8.33001947 38.650369,8.33001947 C40.5989608,8.33001947 41.9343311,9.80850778 41.9343311,12.1764931 C41.9343311,14.5444784 40.5707203,16.1551893 38.6221285,16.1551893 Z" id="Shape" fill="#748ab7" fill-rule="nonzero"></path>
          <path d="M58.9512246,15.5942452 L51.6450145,15.5942452 C51.4110222,15.5942452 51.2173733,15.4059283 51.2173733,15.1695304 L51.2173733,11.2268949 C51.2173733,10.9945038 51.4069878,10.8021801 51.6450145,10.8021801 L58.1806636,10.8021801 C58.4146559,10.8021801 58.6083048,10.6138632 58.6083048,10.3774653 L58.6083048,8.44621503 C58.6083048,8.21382391 58.4186903,8.02150023 58.1806636,8.02150023 L51.6450145,8.02150023 C51.4110222,8.02150023 51.2173733,7.83318329 51.2173733,7.59678543 L51.2173733,3.65414996 C51.2173733,3.42175884 51.4069878,3.22943516 51.6450145,3.22943516 L57.9386025,3.22943516 C58.3420376,3.22943516 58.6123391,2.82475408 58.4590338,2.45613369 L57.7409193,0.72522055 C57.6521635,0.516869895 57.4464116,0.376633877 57.220488,0.376633877 L48.5627702,0.376633877 C48.3287778,0.376633877 48.1351289,0.564950816 48.1351289,0.801348674 L48.1351289,18.0223317 C48.1351289,18.2547228 48.3247434,18.4470465 48.5627702,18.4470465 L58.9471903,18.4470465 C59.1811827,18.4470465 59.3749533,18.2587295 59.3749533,18.0223317 L59.3749533,16.0149533 C59.3788659,15.7865689 59.185217,15.5942452 58.9512246,15.5942452 Z" id="Path" fill="#748ab7" fill-rule="nonzero"></path>
          <path d="M72.3250991,6.03816226 L70.1183089,6.03816226 C69.9367631,6.03816226 69.7794234,6.15035108 69.7189081,6.3186343 L66.983618,13.8192579 C66.8464501,14.191885 66.3219844,14.191885 66.1807821,13.8232646 L63.3809423,6.31462756 C63.3204271,6.15035108 63.159053,6.03816226 62.9815416,6.03816226 L60.6295148,6.03816226 C60.3269384,6.03816226 60.1211865,6.34267476 60.2341483,6.62314679 L64.9664424,18.1866082 C65.030992,18.3468779 65.1883317,18.4510532 65.3618088,18.4510532 L67.7582134,18.4510532 C67.9357249,18.4510532 68.0930646,18.3428712 68.1535799,18.1826014 L72.7204655,6.61914005 C72.8334273,6.33866802 72.623641,6.03816226 72.3250991,6.03816226 Z" id="Path" fill="#748ab7" fill-rule="nonzero"></path>
          <path d="M79.0301908,5.65752164 C75.8753282,5.65752164 72.9504235,8.25789809 72.9504235,12.1804999 C72.9504235,16.3835737 75.9519808,18.8316939 79.3408359,18.8316939 C82.1366413,18.8316939 84.0448894,17.3051246 84.8315879,15.3418204 C84.924378,15.1094293 84.8033475,14.8489909 84.5653208,14.7728628 L82.8507215,14.2359592 C82.6449696,14.1718513 82.4230802,14.2720199 82.3343245,14.4683503 C81.8703741,15.5181171 80.9586107,16.2834051 79.3408359,16.2834051 C77.6585114,16.2834051 76.2747289,15.1655237 75.9842556,13.5427926 C75.9358434,13.286361 76.1456297,13.0459564 76.4078625,13.0459564 L84.69442,13.0459564 C84.9163093,13.0459564 85.1018895,12.8736665 85.1220612,12.6532956 C85.1341643,12.4970326 85.142233,12.3047089 85.142233,12.1043717 C85.1381986,8.18176997 82.8789619,5.65752164 79.0301908,5.65752164 Z M81.6565535,10.882315 L76.5087213,10.882315 C76.2222824,10.882315 76.0245992,10.6098565 76.0972175,10.3333912 C76.4118969,9.1914693 77.4366221,8.1296823 79.0543969,8.1296823 C80.8738894,8.1296823 81.846168,9.14739512 82.0801604,10.3894856 C82.1285726,10.6459171 81.9187863,10.882315 81.6565535,10.882315 Z" id="Shape" fill="#748ab7" fill-rule="nonzero"></path>
          <path d="M93.7555729,5.6815621 C92.7147103,5.6815621 91.6214011,6.01011506 90.7903247,6.77940979 C90.5119545,7.03584136 90.0601072,6.85954465 90.0601072,6.47890403 L90.0601072,6.46287706 C90.0601072,6.23048594 89.8704927,6.03816226 89.6324659,6.03816226 L87.5870498,6.03816226 C87.3530575,6.03816226 87.1594086,6.2264792 87.1594086,6.46287706 L87.1594086,18.0263384 C87.1594086,18.2587295 87.3490231,18.4510532 87.5870498,18.4510532 L89.7091186,18.4510532 C89.943111,18.4510532 90.1367598,18.2627363 90.1367598,18.0263384 L90.1367598,11.2910028 C90.1367598,9.66025827 91.0364202,8.36207342 92.7268133,8.36207342 C94.5987523,8.36207342 95.2926607,9.58413015 95.2926607,11.1147061 L95.2926607,18.0303452 C95.2926607,18.2627363 95.4822752,18.45506 95.720302,18.45506 L97.8423707,18.45506 C98.0763631,18.45506 98.2700283,18.266743 98.2700283,18.0303452 L98.2700283,10.601843 C98.2740463,7.87325073 96.8095768,5.6815621 93.7555729,5.6815621 Z" id="Path" fill="#748ab7" fill-rule="nonzero"></path>
          <path d="M106.984211,15.9428319 C106.810734,15.9628656 106.61305,15.9788926 106.42747,15.9788926 C105.326092,15.9788926 104.837936,15.5181171 104.837936,14.4242761 L104.837936,9.08729397 C104.837936,8.85490285 105.02755,8.66257917 105.265577,8.66257917 L107.004382,8.66257917 C107.238375,8.66257917 107.432024,8.47426223 107.432024,8.23786437 L107.432024,6.45887032 C107.432024,6.2264792 107.242409,6.03415552 107.004382,6.03415552 L105.265577,6.03415552 C105.031585,6.03415552 104.837936,5.84583858 104.837936,5.60944072 L104.837936,2.6604776 C104.837936,2.42808648 104.648321,2.2357628 104.410295,2.2357628 L102.57063,2.2357628 C102.336638,2.2357628 102.142989,2.42407974 102.142989,2.6604776 L102.142989,3.73428482 L102.142989,4.09489173 L102.142989,5.61344746 C102.142989,5.84583858 101.953375,6.03816226 101.715348,6.03816226 L99.9644395,6.03816226 C99.7465845,6.05819598 99.5731074,6.23449269 99.5731074,6.45486357 L99.5731074,8.23385763 C99.5731074,8.46624875 99.7627219,8.65857243 100.000749,8.65857243 L101.457149,8.65857243 C101.691142,8.65857243 101.884791,8.84688937 101.884791,9.08328723 L101.884791,14.9010786 C101.884791,17.220983 103.32102,18.595296 105.632703,18.595296 C106.350818,18.595296 106.843008,18.5031409 107.14155,18.423006 C107.327131,18.3709184 107.452304,18.2066419 107.452304,18.0143182 L107.452304,16.3635399 C107.45623,16.1151218 107.238375,15.9147847 106.984211,15.9428319 Z" id="Path" fill="#748ab7" fill-rule="nonzero"></path>
        </g>
        <g id="Path" fill="#748ab7" fill-rule="nonzero">
          <path d="M10.8494713,8.20341325 L5.5471234,18.4045819 C5.35750889,18.7703975 4.97384209,19.001186 4.55426956,19 L0.943121766,19 C0.238724038,19.0027887 -0.217964524,18.2719587 0.106397316,17.6597283 L5.40914859,7.45896033 C5.59835966,7.09234332 5.9824299,6.86195557 6.40200243,6.86314826 L10.0127468,6.86314826 C10.7171445,6.86115422 11.1730262,7.59118287 10.8494713,8.20341325 Z"></path>
          <path d="M20.4875364,11.4003938 L14.964913,0.810571057 C14.7067145,0.312132181 14.1830557,-0.00119515032 13.6125984,0 L10.114009,0 C9.46689908,0.0012088957 9.04772998,0.669934364 9.34062388,1.23568653 L12.2610908,6.86476029 L12.2610908,6.86476029 L15.2553863,12.6332687 C15.5704691,13.2398897 15.1194286,13.9582988 14.4243099,13.9582988 L10.1555628,13.9582988 C9.59196397,13.9582988 9.13564913,14.4054513 9.13564913,14.9563785 C9.13487197,15.0994193 9.16633991,15.2404566 9.22725861,15.3698744 L10.6372644,18.4069859 C10.8038831,18.7639868 11.1673781,18.9927718 11.5679892,18.9931725 L15.7374912,18.9931725 C19.7218165,18.9931725 22.2993635,14.8730383 20.4891501,11.3991918 L20.4875364,11.4003938 Z"></path>
        </g>
      </g>
    </g>
  </g>
</svg>
