<svg width="130px" height="40px" viewBox="0 0 130 40" version="1.1" xmlns="http://www.w3.org/2000/svg" xmlns:xlink="http://www.w3.org/1999/xlink">
  <g id="Page-1" stroke="none" stroke-width="1" fill="none" fill-rule="evenodd">
    <g id="Bucket">
      <rect id="Rectangle-Copy-4" fill-opacity="0" fill="#FFFFFF" x="0" y="0" width="130" height="40"></rect>
      <g id="logo-dark-trimmed" transform="translate(8.000000, 10.000000)" fill="#748ab7">
        <path d="M10.534287,2.23234824 C8.06351287,2.23234824 6.55633218,2.29509121 5.17566152,2.3786299 C3.54200611,2.47748112 2.15890758,4.03618064 2.26412086,5.66980687 C2.35092755,7.01758776 2.49904131,8.49027556 2.75141556,10.948999 C3.06411938,13.9955279 3.34443169,16.0878322 3.56649647,17.4961656 C3.76397207,18.7484089 4.69248854,19.6005036 5.89054014,19.6640558 C6.99310051,19.7225154 8.50246909,19.7676507 10.534287,19.7676507 C12.6193555,19.7676507 14.1542026,19.7201435 15.2637501,19.6594167 C16.4040694,19.5970504 17.3007907,18.7778131 17.500666,17.5737048 C17.6174363,16.8700962 17.7526979,16.0004566 17.8840778,14.9278477 C17.7651548,14.9285802 17.6406563,14.927185 17.5112173,14.923104 C16.4255955,14.8887816 14.9553268,14.6634538 13.4730952,13.8807015 C11.9940044,13.0996583 11.0374687,12.0652434 10.4505469,11.2228106 C10.1572271,10.8017686 9.95435237,10.4261758 9.82230203,10.1487367 C9.75617099,10.0098078 9.70743729,9.89473718 9.67377186,9.80994279 C9.65693915,9.76752816 9.64381175,9.73261282 9.63414264,9.70596415 C9.62930809,9.69263981 9.62532047,9.68137342 9.62217977,9.67226963 C9.62059178,9.66773517 9.61921552,9.66372391 9.61805099,9.66023587 L9.61642771,9.65545724 L9.61540434,9.65245753 C9.61526318,9.6519692 9.61512203,9.65155063 10.6880752,9.30354831 L9.61512203,9.65155063 C9.42068125,9.06580311 9.74343177,8.43519932 10.3359997,8.24300799 C10.9262034,8.05158404 11.5614354,8.36728706 11.758664,8.94850013 C11.758911,8.94923262 11.7593345,8.95038367 11.7598991,8.9519533 C11.762334,8.95865034 11.7676626,8.97302109 11.7760966,8.99429817 C11.7930352,9.03692209 11.8223248,9.10685741 11.8659063,9.19845349 C11.9533165,9.3820991 12.0966945,9.64959733 12.3106499,9.95671976 C12.7382785,10.5705112 13.440312,11.3324748 14.5373321,11.9117345 C15.6311408,12.4893549 16.736983,12.6651524 17.5833827,12.6918708 C17.7884101,12.6983586 17.9761107,12.6960216 18.1421441,12.6888711 C18.1750684,12.4036536 18.2056637,12.1260749 18.2401408,11.812988 C18.2680895,11.5592675 18.2985789,11.2822469 18.3349969,10.9589748 C18.4448859,9.98326379 18.7767409,6.74112525 18.8609397,5.37907826 C18.951667,3.91099468 17.6855082,2.49575848 16.1834091,2.39696307 C14.7775423,2.30449498 13.1837278,2.23234824 10.534287,2.23234824 Z M20.2796869,13.8224511 C20.2903088,13.7374126 20.302307,13.6407937 20.3129289,13.554639 C20.3795893,13.0148988 20.42857,12.5701032 20.4871139,12.0386296 C20.5148509,11.7869322 20.5447051,11.5158065 20.5796057,11.2059285 C20.6897064,10.2283339 21.0272782,6.93778127 21.1151824,5.51521669 C21.2827331,2.80415753 19.0579213,0.348740745 16.3333861,0.169539603 C14.8770917,0.0737547276 13.2332379,0 10.534287,0 C8.01682591,0 6.46362875,0.0641723683 5.03768267,0.150453017 C2.13757555,0.325932414 -0.173155811,2.96463903 0.0102071344,5.81163082 C0.100246271,7.20963956 0.253282101,8.72711387 0.504474177,11.1743268 C0.820216355,14.2504343 1.1052997,16.3834441 1.33496567,17.8399473 C1.68394628,20.0530775 3.42438532,21.7688123 5.76953517,21.893196 C6.91917067,21.9541671 8.46954473,22 10.534287,22 C12.6530915,22 14.2302497,21.9517254 15.3885663,21.8883825 C17.6773565,21.7631617 19.3731553,20.0808772 19.7293243,17.935171 C19.8961693,16.9300906 20.1005615,15.5898788 20.2796869,13.8224511 Z" id="Shape"></path>
        <path d="M33.7251431,20.661881 L33.7251431,1.58544132 L40.4537468,1.58544132 C41.7855426,1.58544132 42.8851387,1.81209802 43.7518293,2.26541491 C44.6252248,2.71872832 45.2755957,3.33038853 45.7025891,4.10039557 C46.1299353,4.86420783 46.343432,5.71183783 46.343432,6.64332045 C46.343432,7.4630112 46.1991012,8.14297084 45.9100867,8.68323425 C45.6210722,9.21725406 45.2378368,9.64262124 44.7603806,9.95933579 C44.2892763,10.2698067 43.7772372,10.4995643 43.2242632,10.6486085 L43.2242632,10.834905 C43.8146432,10.8721574 44.4085522,11.0770801 45.0052842,11.4496731 C45.6020163,11.8222662 46.0985284,12.3563208 46.4941148,13.0518023 C46.896406,13.7472837 47.0971988,14.5980181 47.0971988,15.6040054 C47.0971988,16.5603229 46.8773501,17.4203703 46.4376528,18.1841826 C45.9979555,18.9417861 45.3070027,19.5441367 44.3644413,19.9912344 C43.4222328,20.4383322 42.1970089,20.661881 40.6891224,20.661881 L33.7251431,20.661881 Z M36.0056052,18.6592195 L40.6891224,18.6592195 C42.2157119,18.6592195 43.3026041,18.3642704 43.949799,17.7743372 C44.6033458,17.1781953 44.9297664,16.4547746 44.9297664,15.6040054 C44.9297664,14.9457763 44.7603806,14.3403213 44.4209032,13.7876753 C44.0881307,13.2349944 43.6106745,12.7910011 42.9885346,12.4556604 C42.3730995,12.1203197 41.6440349,11.9526842 40.8023992,11.9526842 L36.0056052,11.9526842 L36.0056052,18.6592195 Z M36.0056052,9.99658812 L40.3972848,9.99658812 C41.1069407,9.99658812 41.7446077,9.85685701 42.3102856,9.57742966 C42.8819627,9.29800232 43.334011,8.90988746 43.6671364,8.41308511 C44.0062609,7.91010891 44.1759996,7.32017573 44.1759996,6.64332045 C44.1759996,5.78634248 43.8774571,5.06292179 43.2807251,4.47298861 C42.6839931,3.88305543 41.7414317,3.58810628 40.4537468,3.58810628 L36.0056052,3.58810628 L36.0056052,9.99658812 Z" id="Shape" fill-rule="nonzero"></path>
        <path d="M59.2838009,14.8495411 L59.2838009,6.35454514 L61.4512333,6.35454514 L61.4512333,20.661881 L59.2838009,20.661881 L59.2838009,18.2493742 L59.1331181,18.2493742 C58.7939936,18.9759341 58.2628986,19.5907022 57.5405388,20.0936783 C56.824178,20.5966894 55.9229044,20.8481775 54.8360123,20.8481775 C53.9248578,20.8481775 53.1178051,20.6525679 52.4141483,20.2613487 C51.7104915,19.8639208 51.1575174,19.2677789 50.755579,18.472923 C50.3532878,17.6718584 50.152495,16.6690104 50.152495,15.4643091 L50.152495,6.35454514 L52.3199274,6.35454514 L52.3199274,15.3152649 C52.3199274,16.370922 52.618117,17.2123433 53.2152019,17.8395288 C53.8182859,18.4605056 54.5875798,18.7710114 55.5237892,18.7710114 C56.0891142,18.7710114 56.6607913,18.6312803 57.2388203,18.3518529 C57.8168493,18.0723907 58.3006575,17.6439192 58.6902448,17.0664383 C59.0858313,16.4827139 59.2838009,15.7437365 59.2838009,14.8495411 Z" id="Path" fill-rule="nonzero"></path>
        <path d="M70.8930798,20.9599694 C69.542581,20.9599694 68.376995,20.6432548 67.3970276,20.0098606 C66.4234121,19.3764664 65.6724684,18.5040015 65.1449023,17.3924311 C64.6169832,16.2808955 64.3530237,15.0110027 64.3530237,13.5827526 C64.3530237,12.1296327 64.6233352,10.8473225 65.1636053,9.73578694 C65.7102274,8.61800779 66.4703461,7.74554291 67.4443144,7.1183574 C68.4179299,6.48496317 69.558108,6.16824861 70.8648488,6.16824861 C71.876576,6.16824861 72.7873776,6.35454514 73.5979592,6.72713819 C74.4145399,7.09973123 75.0804378,7.6213336 75.5956529,8.29201504 C76.11722,8.9626616 76.4436405,9.74510002 76.5756203,10.6392954 L74.3986599,10.6392954 C74.2292742,9.96864887 73.8492148,9.37871569 73.2584818,8.86949589 C72.6681017,8.35410225 71.8793991,8.09640543 70.8930798,8.09640543 C70.0263891,8.09640543 69.2627415,8.32305864 68.6031956,8.77636507 C67.9500016,9.22346278 67.4379625,9.85375265 67.0670782,10.6672347 C66.7028987,11.474508 66.5204561,12.4215124 66.5204561,13.5082131 C66.5204561,14.6197835 66.6997227,15.5884836 67.0579031,16.414383 C67.4220825,17.2402825 67.9309457,17.8829898 68.5844926,18.3425399 C69.2376865,18.802055 70.0073332,19.0318126 70.8930798,19.0318126 C71.4838127,19.0318126 72.0145549,18.932473 72.4856591,18.7337591 C72.9631153,18.5288364 73.3654066,18.2369567 73.69218,17.8581549 C74.0249525,17.4731793 74.2606811,17.0167337 74.3986599,16.4889226 L76.5756203,16.4889226 C76.4499925,17.3334482 76.139099,18.0941561 75.6425869,18.7710114 C75.1527796,19.441658 74.5024087,19.9757126 73.69218,20.3731406 C72.8879504,20.7643598 71.954917,20.9599694 70.8930798,20.9599694 Z" id="Path" fill-rule="nonzero"></path>
        <path d="M81.3244216,15.4270568 L81.2870156,12.763027 L81.7298889,12.763027 L88.1097342,6.35454514 L90.8047328,6.35454514 L84.057532,13.0890546 L83.8782654,13.0890546 L81.3244216,15.4270568 Z M79.3080249,20.661881 L79.3080249,1.58544132 L81.4754573,1.58544132 L81.4754573,20.661881 L79.3080249,20.661881 Z M88.4866176,20.661881 L82.8136051,13.5547785 L84.3588975,12.0644412 L91.2476061,20.661881 L88.4866176,20.661881 Z" id="Shape" fill-rule="nonzero"></path>
        <path d="M98.6141237,20.9599694 C97.2191611,20.9599694 96.019345,20.6556723 95.0143227,20.0471129 C94.0089474,19.4323449 93.2329487,18.5722974 92.6866795,17.4669357 C92.1464094,16.3616089 91.8760979,15.0792986 91.8760979,13.6200049 C91.8760979,12.1545025 92.1464094,10.8628443 92.6866795,9.74510002 C93.2329487,8.62111215 93.9934204,7.74554291 94.9670358,7.1183574 C95.9410041,6.48496317 97.0780063,6.16824861 98.3783951,6.16824861 C99.1385139,6.16824861 99.8862816,6.29556228 100.621345,6.55015474 C101.356409,6.79853848 102.022307,7.20217514 102.619039,7.76106471 C103.222123,8.31995428 103.699579,9.05579242 104.051408,9.96864887 C104.409588,10.8752617 104.588502,11.9899365 104.588502,13.3126035 L104.588502,14.2254599 L93.4217433,14.2254599 L93.4217433,12.3718426 L102.383663,12.3718426 C102.383663,11.5521519 102.220277,10.8224876 101.893503,10.1828846 C101.56673,9.53707297 101.101978,9.02785317 100.498894,8.65526012 C99.8958095,8.28270196 99.1889767,8.09640543 98.3783951,8.09640543 C97.4926486,8.09640543 96.7230019,8.31684992 96.069455,8.75773891 C95.422613,9.19241917 94.9229249,9.76062182 94.5710965,10.462312 C94.2256201,11.1578283 94.0498823,11.9091883 94.0435303,12.7164616 L94.0435303,13.9366846 C94.0435303,15.0234202 94.235148,15.9455548 94.6183834,16.7031583 C95.0016187,17.460727 95.5355369,18.0382427 96.2204907,18.4356707 C96.9050916,18.8330986 97.7029693,19.0318126 98.6141237,19.0318126 C99.2045038,19.0318126 99.7384219,18.9479948 100.216231,18.7803245 C100.699686,18.6064454 101.114329,18.3549573 101.460158,18.0258253 C101.805634,17.6905195 102.072417,17.2775697 102.260859,16.7869761 L104.353126,17.3738049 C104.126926,18.0817038 103.746866,18.7058198 103.212948,19.2460483 C102.685029,19.7863118 102.028659,20.2085746 101.243132,20.5128368 C100.464311,20.8109252 99.5877391,20.9599694 98.6141237,20.9599694 Z" id="Path" fill-rule="nonzero"></path>
        <path d="M113.717337,6.35454514 L113.717337,8.17091009 L106.272479,8.17091009 L106.272479,6.35454514 L113.717337,6.35454514 Z M108.458614,2.92675537 L110.626047,2.92675537 L110.626047,16.6006796 C110.626047,17.2216564 110.72062,17.6874151 110.909062,17.9978861 C111.097504,18.3083919 111.339231,18.5164189 111.634598,18.6219672 C111.929964,18.7275503 112.244034,18.7803245 112.576806,18.7803245 C112.815711,18.7803245 113.013681,18.767907 113.170715,18.7430722 C113.32775,18.7120285 113.456554,18.6840544 113.557127,18.6592195 L114,20.5873763 C113.848964,20.6432548 113.638644,20.6991333 113.368332,20.7550467 C113.098374,20.8171339 112.759249,20.8481775 112.350606,20.8481775 C111.728819,20.8481775 111.119383,20.7146551 110.522651,20.4476452 C109.925566,20.1806353 109.432583,19.7769987 109.042995,19.2367353 C108.653408,18.6902631 108.458614,18.0040948 108.458614,17.1781953 L108.458614,2.92675537 Z" id="Shape" fill-rule="nonzero"></path>
      </g>
    </g>
  </g>
</svg>
