<svg xmlns="http://www.w3.org/2000/svg" viewBox="0 0 153 40"><g fill="none" fill-rule="evenodd"><path fill="none" d="M0 0h140v40H0z"/><g fill="#748AB7" fill-rule="nonzero"><path d="M47.465 19.267H35.598V31h11.867zM0 31V20.67L11.802 9h10.447v10.33L10.447 31z"/><path d="M17.799 31V20.67L29.601 9h10.447v10.33L28.246 31zM72.177 24.456l-6.072-13.801H61.2V29.07h3.663l.008-12.41 5.54 12.41h3.531l5.548-12.407V29.07h3.663V10.655h-4.907zM92 15.274c-6.106 0-7.387 3.776-7.387 6.942 0 4.837 2.44 7.187 7.459 7.187 5.02 0 7.412-2.33 7.412-7.122s-2.518-7.01-7.481-7.01l-.003.003Zm-3.58 6.877c0-2.42.552-3.649 3.58-3.649 2.818 0 3.677.894 3.677 3.83 0 2.935-.848 3.85-3.629 3.85-2.78 0-3.629-.94-3.629-4.029v-.002ZM109.096 15.297h-.071c-2.199.01-3.916 1.559-4.368 2.262v-6.904h-3.711V29.07h3.711v-.125l.019-1.756c.603.973 2.217 2.217 4.327 2.217 4.613 0 6.583-2.07 6.583-6.92s-2.002-7.187-6.49-7.187v-.002Zm2.755 6.919c0 3.664-1.71 3.961-3.775 3.961-2.066 0-3.727-.292-3.727-3.873 0-2.723 1.058-3.784 3.774-3.784 2.717 0 3.728.93 3.728 3.694v.002ZM125.206 15.297h-.072c-2.198.01-3.915 1.559-4.367 2.262v-6.904h-3.711V29.07h3.71v-.125l.02-1.756c.603.97 2.216 2.214 4.328 2.214 4.612 0 6.582-2.07 6.582-6.92 0-4.849-2.002-7.186-6.49-7.186Zm2.754 6.919c0 3.664-1.709 3.961-3.774 3.961-2.066 0-3.727-.292-3.727-3.873 0-2.723 1.058-3.784 3.775-3.784 2.716 0 3.726.93 3.726 3.694v.002ZM136.978 15.587h-3.711V29.07h3.711zM146.923 15.292c-2.06 0-3.725 1.278-4.259 2.267v-1.972h-3.71V29.07h3.71v-7.857c0-1.762.53-2.603 3.538-2.603 2.279 0 3.087.703 3.087 2.69v7.768H153v-6.965c0-5.067-1.534-6.786-6.077-6.814v.003ZM136.978 10.655h-3.711v3.493h3.711z"/></g></g></svg>
