<svg xmlns="http://www.w3.org/2000/svg" viewBox="0 0 137 40"><g fill="none" fill-rule="evenodd"><path fill="none" d="M0 0h137v40H0z"/><g fill="#748ab7"><path d="M20.004 40c11.048 0 20.004-8.954 20.004-20S31.052 0 20.004 0C8.956 0 0 8.954 0 20s8.956 20 20.004 20Zm1.244-15.599c0-3.143-.363-4.947-1.244-7.42-.932 2.473-1.243 4.277-1.243 7.42 0 2.242.259 3.504 1.243 3.504.985 0 1.244-1.262 1.244-3.504Zm-10.363 5.41c-1.865 0-3.212-1.442-3.212-5.565 0-7.033 2.824-13.835 7.85-13.835 1.865 0 3.393.953 4.481 2.654 1.088-1.7 2.617-2.654 4.482-2.654 5.026 0 7.85 6.802 7.85 13.835 0 4.123-1.348 5.565-3.213 5.565s-3.212-1.442-3.212-5.565c0-2.86.647-6.853 2.124-9.43-.751-1.313-1.84-2.447-3.445-2.447-1.555 0-2.643 1.056-3.472 2.448 1.477 2.963 2.099 6.492 2.099 9.43 0 4.122-1.348 5.616-3.213 5.616s-3.212-1.494-3.212-5.617c0-2.937.673-6.93 2.098-9.43-.829-1.39-1.917-2.447-3.471-2.447-1.606 0-2.694 1.134-3.446 2.448 1.477 2.576 2.125 6.57 2.125 9.43 0 4.122-1.348 5.564-3.213 5.564Zm0-12.83c-.932 2.396-1.243 4.277-1.243 7.42 0 2.242.259 3.504 1.243 3.504.985 0 1.244-1.262 1.244-3.504 0-3.143-.363-5.024-1.244-7.42Zm18.238 0c-.88 2.473-1.243 4.277-1.243 7.42 0 2.242.259 3.504 1.243 3.504.985 0 1.244-1.262 1.244-3.504 0-3.143-.311-4.947-1.244-7.42Z"/><g fill-rule="nonzero"><path d="M51.791 26.104h2.805v-6.09c0-2.406 1.253-3.784 2.93-3.784 1.653 0 2.43 1.303 2.43 3.508v6.366h2.805v-6.09c0-2.406 1.277-3.784 2.855-3.784 1.653 0 2.38 1.303 2.38 3.508v6.366H70.8v-7.067c0-3.66-1.603-5.338-4.282-5.338-1.804 0-3.356.701-4.383 2.03h-.05c-.727-1.379-2.004-2.03-3.657-2.03-1.402 0-2.805.651-3.807 1.854h-.025v-1.679h-2.805v12.23ZM77.599 26.304a4.777 4.777 0 0 0 3.732-1.754l.05.025v1.529h2.805v-12.23h-2.805v5.864c0 2.632-1.503 4.01-3.13 4.01-1.679 0-2.43-.752-2.43-3.183v-6.69h-2.805v7.442c0 3.634 1.878 4.987 4.583 4.987ZM86.744 26.104h2.805v-5.79c0-2.004 1.202-3.533 3.33-3.533.201 0 .526.025.852.05V13.7h-.35c-1.478 0-2.83.726-3.783 2.005h-.05v-1.83h-2.804v12.23ZM95.06 26.104h2.805v-6.09c0-2.406 1.253-3.784 2.93-3.784 1.653 0 2.43 1.303 2.43 3.508v6.366h2.805v-6.09c0-2.406 1.277-3.784 2.855-3.784 1.653 0 2.38 1.303 2.38 3.508v6.366h2.805v-7.067c0-3.66-1.604-5.338-4.283-5.338-1.804 0-3.356.701-4.383 2.03h-.05c-.726-1.379-2.004-2.03-3.657-2.03-1.402 0-2.805.651-3.806 1.854h-.026v-1.679h-2.804v12.23ZM120.868 26.304a4.777 4.777 0 0 0 3.732-1.754l.05.025v1.529h2.805v-12.23h-2.805v5.864c0 2.632-1.503 4.01-3.13 4.01-1.679 0-2.43-.752-2.43-3.183v-6.69h-2.805v7.442c0 3.634 1.878 4.987 4.583 4.987ZM130.013 26.104h2.805v-5.79c0-2.004 1.202-3.533 3.331-3.533.2 0 .526.025.851.05V13.7h-.35c-1.478 0-2.83.726-3.782 2.005h-.05v-1.83h-2.805v12.23Z"/></g></g></g></svg>
