<svg xmlns="http://www.w3.org/2000/svg" viewBox="0 0 140 40"><g fill="none" fill-rule="evenodd"><path fill="none" d="M0 0h140v40H0z"/><g fill="#748AB7" fill-rule="nonzero"><path d="M23.778 4v2.907H3.289v22.914H0V4z"/><path d="M23.778 9.513v2.906H9.502v17.402H6.21V9.513z"/><path d="M23.778 15.007v2.923h-8.066v11.891H12.42V15.007zM33.143 14.723c3.916 0 7.205 2.57 7.205 7.35 0 .317 0 .585-.032 1.07H28.552c.153 2.421 2.128 4.023 4.608 4.023 2.092 0 3.494-.952 4.268-2.254l2.516 1.77c-1.351 2.106-3.678 3.44-6.817 3.44-4.54 0-7.812-3.191-7.812-7.7.016-4.36 3.29-7.7 7.831-7.7m-4.421 6.03h8.32c-.355-2.138-2.091-3.29-4.016-3.29-1.925 0-3.864 1.1-4.304 3.29M43.69 15.007h3.29v1.986c.844-1.185 2.665-2.27 4.81-2.27 4.1 0 7.204 3.458 7.204 7.7 0 4.24-3.106 7.699-7.205 7.699-2.16 0-3.984-1.102-4.81-2.29V36h-3.29V15.007Zm7.508 2.67c-2.666 0-4.49 2.071-4.49 4.745s1.824 4.744 4.49 4.744c2.666 0 4.455-2.07 4.455-4.744s-1.824-4.744-4.455-4.744M62.355 7.608h3.289v22.198h-3.289zM71.723 11.783c-1.198 0-2.21-.968-2.21-2.186s1.012-2.155 2.21-2.155c1.197 0 2.176.986 2.176 2.155 0 1.22-.946 2.186-2.176 2.186m-1.638 3.224h3.29v14.798h-3.29V15.007ZM84.615 30.106c-4.49 0-7.897-3.324-7.897-7.7s3.41-7.7 7.897-7.7c3.087 0 5.688 1.638 6.97 4.092l-2.868 1.538c-.725-1.502-2.177-2.607-4.102-2.607-2.666 0-4.539 2.038-4.539 4.677s1.89 4.677 4.54 4.677c1.905 0 3.373-1.102 4.1-2.607l2.87 1.538c-1.283 2.47-3.9 4.092-6.97 4.092M100.732 14.723c2.16 0 3.948 1.101 4.793 2.27v-1.986h3.29v14.798h-3.29V27.82c-.845 1.185-2.633 2.29-4.793 2.29-4.102 0-7.205-3.46-7.205-7.7 0-4.241 3.106-7.684 7.205-7.684m.607 2.956c-2.666 0-4.455 2.07-4.455 4.744s1.789 4.744 4.455 4.744c2.666 0 4.454-2.07 4.454-4.744s-1.805-4.744-4.454-4.744M114.45 29.821V17.913h-3.123v-2.906h3.123v-4.108h3.292v4.108h5.669v2.906h-5.669v8.986h5.669v2.922zM132.795 14.723c3.916 0 7.205 2.57 7.205 7.35 0 .317 0 .585-.033 1.07h-11.763c.153 2.421 2.127 4.023 4.607 4.023 2.092 0 3.495-.952 4.269-2.254l2.515 1.77c-1.35 2.106-3.677 3.44-6.816 3.44-4.54 0-7.813-3.191-7.813-7.7.033-4.36 3.29-7.7 7.832-7.7m-4.422 6.03h8.32c-.355-2.138-2.09-3.29-4.016-3.29-1.925 0-3.847 1.1-4.304 3.29"/></g></g></svg>
