<svg width="256px" height="40px" viewBox="0 0 256 40" version="1.1" xmlns="http://www.w3.org/2000/svg" xmlns:xlink="http://www.w3.org/1999/xlink">
  <g id="Page-1" stroke="none" stroke-width="1" fill="none" fill-rule="evenodd">
    <g id="Group-6">
      <rect id="Rectangle-Copy" fill-opacity="0" fill="#FFFFFF" x="0" y="0" width="256" height="40"></rect>
      <g id="Group" fill-rule="nonzero">
        <path d="M10.5,10.4308827 L8.16,11.6831137 L8,9.75968689 L10.44,9.49922284 L10.5,10.4308827 Z M4.53,16.2011631 C4.58,16.8723589 4.48,17.914215 4.11,18.4351431 L3.02,18.0244114 C3.38,17.5034833 3.59,16.7721804 3.59,16.1510738 L4.53,16.2011631 Z M26.17,27.7016524 C29.18,15.2695032 25.65,5.39190522 16.05,4.24987057 C16.1,4.77079866 16.1,5.18153042 16.1,5.60228003 C16.1,6.22338659 16.05,6.74431468 16.05,6.74431468 L14.54,6.48385064 C14.59,5.96292255 14.7,2.42662226 13.45,1.64523012 C13.45,1.64523012 13.45,3.51856767 13.04,5.39190522 L11.64,5.13144118 C11.64,3.82912096 11.07,3.30819287 10.29,2.94755035 L10.65,5.4920837 L9.77,6.79440392 L10.19,7.98652782 L7.43,8.92820552 L6.65,11.1621856 L1.82,17.8140366 L3.64,19.9979274 L5.66,18.2848754 L6.13,18.5954287 L6.13,21.1399621 L7.22,21.1399621 C7.69,19.3167137 9.19,17.19293 10.59,16.1510738 L9.81,15.219414 L10.95,14.227647 L12.04,15.5800565 L15.93,15.5299673 C16.5,14.2777363 16.86,12.7750591 16.86,11.0019 L18.37,11.0019 C18.37,16.932466 15.41,19.2666245 11.73,22.9131211 C10.38,24.2655306 9.19,25.7181185 9.03,27.7016524 L26.17,27.7016524 Z M29.91,29.1542403 L5.41,29.1542403 L5.41,27.6415453 L7.49,27.6415453 C7.85,22.7528356 12.53,20.9295873 15.12,16.9825552 L12.11,16.9825552 C10.66,17.5034833 8.48,20.7292303 8.48,22.6025678 L4.68,22.6025678 L4.73,21.0397836 L3.48,22.0816398 L0.16,18.2347862 C0.16,18.2347862 0,18.0244114 0,17.8741437 C0,17.7138581 0.05,17.6136796 0.05,17.6136796 L5.31,10.4809719 L6.24,7.67597453 L7.64,7.15504645 L9.09,5.13144118 L8.58,1.59514088 C9.98,1.0742128 11.33,1.54505165 12.01,2.21624745 C12.06,1.17439127 11.96,0.0323566187 11.96,0.0323566187 C14.45,-0.228107426 15.33,1.12430204 15.75,2.63699706 C16.42,2.6870863 17.05,2.78726478 17.62,2.89746111 C17.72,2.58690782 18.03,2.32644378 18.4,2.32644378 C18.87,2.32644378 19.18,2.6870863 19.18,3.10783591 L19.18,3.31821072 C20.27,3.67885324 21.31,4.19978133 22.24,4.77079866 C22.4,4.56042385 22.6,4.46024537 22.86,4.46024537 C23.33,4.46024537 23.64,4.82088789 23.64,5.2416375 C23.64,5.45201231 23.59,5.60228003 23.48,5.71247635 C24.36,6.44377925 25.09,7.32534986 25.77,8.25700971 C25.87,8.20692047 26.03,8.15683123 26.13,8.15683123 C26.6,8.15683123 26.96,8.51747375 26.96,8.93822336 C26.96,9.24877665 26.8,9.50924069 26.55,9.61943702 C27.07,10.5510969 27.48,11.592953 27.79,12.6848985 L28,12.6348092 C28.47,12.6348092 28.78,12.9954517 28.78,13.4162014 C28.78,13.836951 28.52,14.1475043 28.21,14.1975935 C28.42,15.2895389 28.57,16.3814843 28.68,17.523519 C29.15,17.523519 29.51,17.8841615 29.51,18.3049111 C29.51,18.77575 29.15,19.0863032 28.73,19.1363925 C28.73,20.2283379 28.68,21.4204618 28.57,22.5725143 C28.98,22.6226035 29.3,22.9832461 29.3,23.4039957 C29.3,23.8147274 28.94,24.1853878 28.47,24.1853878 L28.42,24.1853878 C28.21,25.3274225 28.01,26.4694571 27.74,27.6715989 L29.92,27.6715989 L29.92,29.1542403 L29.91,29.1542403 Z" id="Shape" fill="#748ab7"></path>
        <rect id="Rectangle" fill="#748ab7" x="5.41" y="33.8325753" width="24.5" height="3.01537221"></rect>
        <path d="M140.43,19.2766424 C140.07,18.9159998 139.6,18.7557143 139.18,18.7557143 C138.51,18.7557143 137.62,19.5371064 137.05,21.1499799 L137.05,25.9886004 C137.05,27.7517416 137.26,27.9120272 139.49,28.0723128 L139.49,29.114169 L132.38,29.114169 L132.38,28.0723128 C134.2,27.9120272 134.35,27.7617595 134.35,25.9886004 L134.35,20.1081237 C134.35,18.3349647 134.25,18.3349647 132.59,18.0244114 L132.59,17.1428408 C134.25,16.8322875 135.7,16.5217342 137.05,16.0008061 L137.05,19.1163568 L137.1,19.1163568 C137.98,17.4033048 139.28,16.0508953 140.53,16.0508953 C141.52,16.0508953 142.290057,16.8322875 142.290057,17.6637688 C142.3,18.8558927 141,19.8977489 140.43,19.2766424 M125.48,17.3532156 C124.29,17.3532156 123.04,18.6555358 122.73,20.8895159 L127.19,20.7893374 C127.76,20.7893374 127.86,20.6290518 127.86,20.1181416 C127.87,18.6956072 126.88,17.3532156 125.48,17.3532156 M129.89,21.8712649 C129.42,21.9213542 125.84,22.1818182 122.57,22.2920146 C122.67,25.7281364 124.7,27.1807243 126.72,27.1807243 C127.86,27.1807243 128.69,26.870171 129.73,25.8283149 L130.41,26.7599747 C128.7,28.8937763 126.67,29.4147044 125.74,29.4147044 C122.05,29.4147044 119.92,26.609707 119.92,23.2737636 C119.92,19.2165353 122.98,16.0508953 126.05,16.0508953 C128.59,16.0508953 130.62,18.2347862 130.62,20.6791411 C130.62,21.4605332 130.46,21.7710865 129.89,21.8712649 M111.57,17.2931085 C110.48,17.2931085 109.23,18.4351431 109.23,20.619034 C109.23,22.8029248 110.37,24.3657091 111.93,24.3657091 C113.07,24.3657091 114.16,23.3739421 114.16,20.9896943 C114.16,18.9560712 113.18,17.2931085 111.57,17.2931085 M114.89,30.6569175 C114.16,30.3964535 113.18,30.3463642 111.57,30.3463642 C109.34,30.3463642 108.35,32.009327 108.35,33.261558 C108.35,35.0246992 109.91,36.3771086 112.24,36.3771086 C114.84,36.3771086 116.29,34.6640567 116.29,32.9409868 C116.29,31.8590593 115.67,30.9774887 114.89,30.6569175 M118.99,16.7220911 C118.78,17.19293 118.21,18.0745006 117.75,18.3349647 L116.24,18.1746791 C116.65,18.7456964 116.97,19.8877311 116.97,20.7793195 C116.97,23.9549773 114.12,25.6680293 111.52,25.6680293 C111.36,25.6680293 110.95,25.61794 110.59,25.61794 C109.97,25.8283149 109.45,26.5495999 109.45,27.0204387 C109.45,27.4912776 109.92,28.0622949 111.16,28.0622949 L114.28,28.0622949 C116.1,28.0622949 118.54,28.9438655 118.54,31.8590593 C118.54,35.1849848 115.06,38 111.01,38 C107.48,38 105.61,35.8161092 105.61,34.0429501 C105.61,32.9009154 106.18,32.0193448 108.62,30.1460073 C107.74,29.835454 106.18,28.9538834 106.28,27.2909206 C107.47,26.7699926 108.56,25.8383327 109.03,25.2673154 C107.63,24.7964765 106.33,23.1335138 106.33,21.2601762 C106.33,17.8841615 109.34,16.0609132 111.83,16.0609132 C112.92,16.0609132 113.96,16.3213772 114.84,16.7922161 C116.19,16.7421268 117.54,16.5818413 118.78,16.4315736 L118.99,16.7220911 Z M104.2,29.1041511 L98.07,29.1041511 L98.07,28.0622949 C99.52,27.9020094 99.73,27.7517416 99.73,26.0887789 L99.73,20.9896943 C99.73,19.1163568 98.9,17.9743221 97.34,17.9743221 C96.35,17.9743221 95.21,18.705625 94.43,19.4269101 L94.43,26.078761 C94.43,27.7417238 94.59,27.9020094 96.04,28.0522771 L96.04,29.0941333 L89.71,29.0941333 L89.71,28.0522771 C91.47,27.8919915 91.73,27.7417238 91.73,26.078761 L91.73,20.0981059 C91.73,18.3249468 91.63,18.2247683 90.07,18.0143935 L90.07,17.1328229 C91.63,16.8222696 93.08,16.5117163 94.43,15.9907883 L94.43,18.0745006 C95.11,17.5034833 97.08,16.0508953 98.58,16.0508953 C100.92,16.0508953 102.37,17.6637688 102.37,20.0580345 L102.37,26.0887789 C102.37,27.7517416 102.63,27.9120272 104.19,28.0622949 L104.19,29.1041511 L104.2,29.1041511 Z M84.89,13.2358801 C83.9,13.2358801 83.12,12.454488 83.12,11.462721 C83.12,10.4208648 83.9,9.63947271 84.89,9.63947271 C85.93,9.63947271 86.71,10.4208648 86.71,11.462721 C86.7,12.4645058 85.92,13.2358801 84.89,13.2358801 M88.31,29.1041511 L81.67,29.1041511 L81.67,28.0622949 C83.43,27.9020094 83.69,27.7517416 83.69,25.8784041 L83.69,20.2583914 C83.69,18.2347862 83.53,18.2347862 81.82,18.0244114 L81.82,17.1428408 C83.43,16.8322875 85.04,16.4616271 86.34,16.0008061 L86.34,25.8784041 C86.34,27.7517416 86.5,27.9020094 88.31,28.0622949 L88.31,29.1041511 L88.31,29.1041511 Z M78.4,19.2766424 C78.09,18.8659106 77.67,18.7557143 77.15,18.7557143 C76.48,18.7557143 75.64,19.5371064 75.07,21.1499799 L75.07,25.9886004 C75.07,27.7517416 75.28,27.9120272 77.51,28.0723128 L77.51,29.114169 L70.45,29.114169 L70.45,28.0723128 C72.22,27.9120272 72.42,27.7617595 72.42,25.9886004 L72.42,20.1081237 C72.42,18.3349647 72.26,18.3349647 70.65,18.0244114 L70.65,17.1428408 C72.21,16.8322875 73.71,16.5217342 75.06,16.0008061 L75.06,19.1163568 L75.11,19.1163568 C76.04,17.4033048 77.34,16.0508953 78.54,16.0508953 C79.58,16.0508953 80.3100596,16.8322875 80.3100596,17.6637688 C80.32,18.8558927 79.07,19.8977489 78.4,19.2766424 M62.2,17.9743221 C61.37,17.9743221 60.28,18.5453395 59.6,18.9660891 L59.6,26.6597962 C60.17,27.2809028 61.11,27.7517416 62.25,27.7517416 C63.76,27.7517416 65.73,26.609707 65.73,22.7127642 C65.73,19.4269101 64.17,17.9743221 62.2,17.9743221 M61.53,29.3646151 C60.7,29.3145259 60.02,29.1542403 59.61,29.0039726 L59.61,33.8926824 C59.61,35.6658414 59.82,35.8161092 62.21,36.026484 L62.21,37.0182509 L54.89,37.0182509 L54.89,36.026484 C56.76,35.8161092 56.91,35.6658414 56.91,33.8926824 L56.91,19.9979274 C56.91,18.1746791 56.86,18.1245899 55.09,17.9743221 L55.09,17.0927515 C56.65,16.7821982 58.1,16.3113594 59.61,15.7904313 L59.61,17.7639473 L62.41,16.3113594 C62.77,16.1009846 63.14,16.0508953 63.5,16.0508953 C66.72,16.0508953 68.54,18.8558927 68.54,21.5607117 C68.53,25.9284933 65.42,28.8937763 61.53,29.3646151 M46.73,29.5649721 C44.76,29.5649721 43.2,29.0941333 41.69,28.4229374 C41.38,27.070528 41.27,25.2472797 41.17,23.3739421 L42.36,23.1635673 C43.03,25.7081007 43.97,28.2125626 47.08,28.2125626 C49.26,28.2125626 50.56,26.8601532 50.56,24.8365479 C50.56,19.4769993 41.68,20.6791411 41.68,14.4881111 C41.68,11.6831137 43.96,9.12856247 48.01,9.12856247 C49.36,9.12856247 50.81,9.489205 52.27,10.0101331 C52.37,11.1020785 52.48,12.3543095 52.53,14.5382003 L51.44,14.5882896 C50.92,12.7650412 50.09,10.5310612 47.44,10.5310612 C45.47,10.5310612 44.48,11.8834706 44.48,13.4963441 C44.48,18.4351431 53.5101084,17.393287 53.5101084,23.844781 C53.53,26.9202603 50.78,29.5649721 46.73,29.5649721" id="Shape" fill="#748ab7"></path>
        <polygon id="Path" fill="#748ab7" points="159.23 29.1041511 159.23 19.8977489 149.73 19.8977489 149.73 29.1041511 148.28 29.1041511 148.28 10.5911683 149.73 10.5911683 149.73 18.7557143 159.23 18.7557143 159.23 10.5911683 160.63 10.5911683 160.63 29.1041511"></polygon>
        <path d="M165.36,21.4004261 L172.78,21.4004261 C172.78,19.2666245 171.79,17.1328229 169.25,17.1328229 C166.76,17.1428408 165.57,19.4269101 165.36,21.4004261 M165.26,22.4923715 C165.31,26.8100639 167.49,28.1624734 169.93,28.1624734 C171.54,28.1624734 172.47,27.8519201 173.25,27.4311705 L173.56,28.5231159 C172.94,28.8837584 171.64,29.3045081 169.72,29.3045081 C166.03,29.3045081 163.85,26.5996891 163.85,22.9131211 C163.85,18.705625 166.19,16.0508953 169.46,16.0508953 C173.46,16.0508953 174.23,19.7474812 174.23,21.670908 C174.23,21.9814613 174.23,22.2419253 174.18,22.5023894 L165.26,22.5023894 L165.26,22.4923715 Z" id="Shape" fill="#748ab7"></path>
        <path d="M179.89,28.2125626 C181.81,28.2125626 183,27.070528 183.37,25.7181185 C183.42,25.4576545 183.47,25.1971904 183.47,24.9868156 L183.47,22.2819967 C181.03,22.2319075 177.45,22.59255 177.45,25.6580114 C177.46,27.4912776 178.65,28.2125626 179.89,28.2125626 M183.79,29.1041511 L183.58,27.3910991 C182.96,28.3828661 181.61,29.3646151 179.79,29.3646151 C177.3,29.3646151 176.05,27.7016524 176.05,25.8283149 C176.05,22.8129426 178.7,21.2000691 183.47,21.2000691 L183.47,20.8895159 C183.47,19.3267316 183.21,17.19293 180.36,17.2530371 C179.37,17.2530371 178.28,17.5135011 177.35,18.0845185 L176.94,17.0927515 C178.03,16.4115379 179.43,16.0508953 180.57,16.0508953 C183.89,16.0508953 184.93,18.2848754 184.93,20.8294088 L184.93,26.078761 C184.93,27.070528 184.93,28.1023663 185.09,29.0941333 L183.79,29.0941333 L183.79,29.1041511 Z" id="Shape" fill="#748ab7"></path>
        <rect id="Rectangle" fill="#748ab7" x="188.77" y="10.3307042" width="1.4" height="18.7734469"></rect>
        <path d="M196.09,17.4033048 L196.09,25.7782256 C196.09,27.3910991 196.66,28.2225805 197.91,28.2225805 C198.48,28.2225805 198.9,28.1724913 199.26,28.0122057 L199.41,29.1041511 C198.94,29.2043296 198.42,29.3145259 197.7,29.3145259 C196.77,29.3145259 195.99,29.0540619 195.47,28.4830445 C194.95,27.861938 194.69,26.8200818 194.69,25.4676723 L194.69,17.4033048 L192.56,17.4033048 L192.56,16.3113594 L194.69,16.3113594 L194.69,14.0773793 L196.09,13.506362 L196.09,16.3113594 L199.62,16.3113594 L199.62,17.4033048 L196.09,17.4033048 Z" id="Path" fill="#748ab7"></path>
        <path d="M210.63,29.1041511 L210.63,21.2501584 C210.63,19.0662675 209.8,17.19293 207.41,17.19293 C205.7,17.19293 204.24,18.3349647 203.83,19.9478382 C203.68,20.2583914 203.68,20.6290518 203.68,21.0898728 L203.68,29.0941333 L202.23,29.0941333 L202.23,10.3307042 L203.68,10.3307042 L203.68,18.2848754 C204.56,16.7721804 206.07,16.0008061 207.78,16.0008061 C209.08,16.0008061 212.04,16.732109 212.04,21.0498014 L212.04,29.114169 L210.63,29.114169 L210.63,29.1041511 Z" id="Path" fill="#748ab7"></path>
        <path d="M223.29,17.8641258 C222.67,17.5535725 221.79,17.1829122 220.54,17.1829122 C217.27,17.1829122 215.66,19.8376418 215.66,22.7428177 C215.66,26.0687432 217.63,28.1524556 220.43,28.1524556 C221.73,28.1524556 222.61,27.791813 223.39,27.4812597 L223.75,28.5231159 C223.13,28.8837584 221.83,29.3045081 220.22,29.3045081 C216.64,29.3045081 214.25,26.6998676 214.25,22.8029248 C214.25,18.905982 216.79,16.0408775 220.63,16.0408775 C221.98,16.0408775 223.23,16.3514308 223.8,16.7120733 L223.29,17.8641258 Z" id="Path" fill="#748ab7"></path>
        <path d="M229.78,28.2125626 C231.7,28.2125626 232.9,27.070528 233.26,25.7181185 C233.31,25.4576545 233.36,25.1971904 233.36,24.9868156 L233.36,22.2819967 C230.92,22.2319075 227.34,22.59255 227.34,25.6580114 C227.34,27.4912776 228.54,28.2125626 229.78,28.2125626 M233.67,29.1041511 L233.46,27.3910991 C232.84,28.3828661 231.49,29.3646151 229.67,29.3646151 C227.18,29.3646151 225.93,27.7016524 225.93,25.8283149 C225.93,22.8129426 228.58,21.2000691 233.35,21.2000691 L233.35,20.8895159 C233.35,19.3267316 233.09,17.19293 230.23,17.2530371 C229.24,17.2530371 228.16,17.5135011 227.22,18.0845185 L226.81,17.0927515 C227.9,16.4115379 229.3,16.0508953 230.44,16.0508953 C233.76,16.0508953 234.8,18.2848754 234.8,20.8294088 L234.8,26.078761 C234.8,27.070528 234.8,28.1023663 234.95,29.0941333 L233.67,29.0941333 L233.67,29.1041511 Z" id="Shape" fill="#748ab7"></path>
        <path d="M239.6,20.7793195 C239.55,21.1399621 239.55,21.5106224 239.55,21.8712649 L239.55,29.0941333 L238.1,29.0941333 L238.1,19.8977489 C238.1,18.7557143 238.1,17.5034833 238.05,16.3113594 L239.35,16.3113594 L239.4,18.5954287 C240.02,17.19293 241.37,16.0508953 243.03,16.0508953 C243.18,16.0508953 243.34,16.0508953 243.55,16.1009846 L243.55,17.4033048 L242.98,17.4033048 C241.15,17.4033048 239.9,18.8558927 239.6,20.7793195" id="Path" fill="#748ab7"></path>
        <path d="M246.14,21.4004261 L253.56,21.4004261 C253.56,19.2666245 252.57,17.1328229 250.03,17.1328229 C247.54,17.1428408 246.34,19.4269101 246.14,21.4004261 M246.03,22.4923715 C246.08,26.8100639 248.26,28.1624734 250.7,28.1624734 C252.31,28.1624734 253.24,27.8519201 254.02,27.4311705 L254.33,28.5231159 C253.71,28.8837584 252.41,29.3045081 250.49,29.3045081 C246.8,29.3045081 244.62,26.5996891 244.62,22.9131211 C244.62,18.705625 246.96,16.0508953 250.23,16.0508953 C254.23,16.0508953 255,19.7474812 255,21.670908 C255,21.9814613 255,22.2419253 254.95,22.5023894 L246.03,22.5023894 L246.03,22.4923715 Z" id="Shape" fill="#748ab7"></path>
      </g>
    </g>
  </g>
</svg>
