<svg width="115px" height="40px" viewBox="0 0 115 40" version="1.1" xmlns="http://www.w3.org/2000/svg" xmlns:xlink="http://www.w3.org/1999/xlink">
  <g id="Page-1" stroke="none" stroke-width="1" fill="none" fill-rule="evenodd">
    <g id="Group-4">
      <rect id="Rectangle-Copy-3" fill-opacity="0" fill="#FFFFFF" x="0" y="0" width="115" height="40"></rect>
      <g id="Group" transform="translate(0.000000, 5.000000)">
        <path d="M7.82639784,28.4844011 C7.82639784,28.9845747 8.34590032,29.3250244 8.82015549,29.1356962 L23.6485131,23.2140561 C23.9194149,23.1058686 24.0964251,22.8484969 24.0964251,22.5627609 L24.0964251,9.7537752 L25.94996,9.7537752 L25.94996,22.5627609 C25.94996,23.5832577 25.3178819,24.5023868 24.3503416,24.8887155 L9.52198396,30.8103556 C7.82832443,31.4866827 5.97284725,30.2706579 5.97284725,28.4844011 L5.97284725,23.4872374 L7.82639784,23.4872374 L7.82639784,28.4844011 Z" id="Path" fill="#748ab7" fill-rule="nonzero"></path>
        <path d="M23.3752521,6.45483809 C24.797074,6.45483809 25.9496455,7.57996521 25.9496455,8.9678656 L25.9496455,22.035618 C25.9496455,23.4235338 24.797074,24.5486532 23.3752521,24.5486532 L2.57436971,24.5486532 C1.15258713,24.5486532 0,23.4235338 0,22.035618 L0,8.9678656 L1.85354273,8.9678656 L1.85354273,22.035618 C1.85354273,22.4242716 2.17627374,22.7393019 2.57436971,22.7393019 L23.3752521,22.7393019 C23.7733874,22.7393019 24.0961106,22.4242716 24.0961106,22.035618 L24.0961106,8.9678656 C24.0961106,8.57928945 23.7733874,8.26425912 23.3752521,8.26425912 L18.1750374,8.26425912 L18.1750374,6.45483809 L23.3752521,6.45483809 Z" id="Path" fill="#748ab7" fill-rule="nonzero"></path>
        <path d="M1.85495819,21.2462209 C1.85495819,21.746317 2.37449211,22.0868443 2.84870797,21.8974386 L17.6771128,15.975876 C17.9480146,15.8676884 18.1249462,15.6103168 18.1249462,15.3245808 L18.1249462,2.51557956 C18.1249462,2.01542145 17.6054751,1.67494071 17.13122,1.86432315 L2.3028545,7.78594002 C2.03195264,7.89412755 1.85495819,8.15149919 1.85495819,8.43715769 L1.85495819,21.2462209 Z M3.55052071,23.572098 C1.85688477,24.2484251 0.00141137901,23.0324777 0.00141137901,21.2462209 L0.00141137901,8.43715769 C0.00141137901,7.41675393 0.633527383,6.49763261 1.60104176,6.11126516 L16.4293915,0.18965449 C18.1230589,-0.48668733 19.978481,0.729303374 19.978481,2.51557956 L19.978481,15.3245808 C19.978481,16.3450001 19.3464029,17.2641291 18.3788626,17.6505353 L3.55052071,23.572098 Z" id="Shape" fill="#748ab7"></path>
        <path d="M40.3259233,25.152442 C39.0406925,25.152442 37.8201794,24.930952 36.6644626,24.4878946 C35.5187325,24.0449147 34.547339,23.3850947 33.7502821,22.5084347 C32.9632119,21.6223974 32.4600186,20.5478068 32.2408594,19.2846631 L36.0069063,18.3797937 C36.1364202,19.5674542 36.5996663,20.4629463 37.3967233,21.06627 C38.203767,21.6695163 39.2000882,21.9711394 40.3856868,21.9711394 C41.1129934,21.9711394 41.7406679,21.8627194 42.2687103,21.6459568 C42.7967527,21.4197395 43.1952811,21.113389 43.4642957,20.7269053 C43.7332317,20.3404216 43.8677783,19.9068189 43.8677783,19.4260974 C43.8677783,18.8510605 43.6785009,18.3609617 43.2998673,17.9555684 C42.9312206,17.5502526 42.4679745,17.2156152 41.9100504,16.9517337 C41.3520476,16.6877748 40.5849511,16.3719695 39.6085249,16.0043953 C38.3332809,15.5236738 37.3021239,15.0806164 36.5150537,14.6753006 C35.7279049,14.26053 35.0504537,13.6855706 34.4825428,12.9503449 C33.9246186,12.2150416 33.6456172,11.2866128 33.6456172,10.1649033 C33.6456172,9.02428431 33.9395595,8.03928175 34.5273654,7.20978714 C35.1251581,6.370861 35.9222151,5.73459274 36.9185363,5.30099012 C37.9247656,4.8673875 39.0307057,4.65058618 40.2361993,4.65058618 C41.5911804,4.65058618 42.8266344,4.94279328 43.9424827,5.52721522 C45.058331,6.10221337 45.9650069,6.9788424 46.6624317,8.15707907 L43.5091184,9.98107752 C43.1404717,9.30242548 42.657252,8.77923489 42.0594593,8.41158327 C41.4616665,8.03455436 40.8090644,7.84607865 40.1017314,7.84607865 C39.6035708,7.84607865 39.1502328,7.93558911 38.7417962,8.11468753 C38.3432677,8.29378595 38.0243977,8.54829015 37.7853436,8.87820014 C37.5561189,9.19873284 37.4415459,9.56630697 37.4415459,9.98107752 C37.4415459,10.4900859 37.6159611,10.9236886 37.9646342,11.2818854 C38.3133859,11.6400822 38.7517044,11.9417054 39.2797467,12.1868323 C39.8177759,12.4318817 40.5500366,12.72405 41.4766074,13.0634148 C42.7917199,13.5441364 43.8577915,13.9966486 44.6747434,14.4207964 C45.491774,14.8449442 46.1941529,15.4388132 46.7819588,16.2023258 C47.3697647,16.9658384 47.663707,17.9320089 47.663707,19.1009148 C47.663707,20.3263169 47.3349289,21.39618 46.6773726,22.3105042 C46.0297245,23.2248284 45.1479763,23.9270399 44.032128,24.4172162 C42.9162798,24.9073925 41.6809044,25.152442 40.3259233,25.152442 Z" id="Path" fill="#748ab7" fill-rule="nonzero"></path>
        <path d="M64.1583666,10.5041906 C65.4934527,10.5041906 66.6442154,10.7493175 67.6105762,11.2394939 C68.5870025,11.7295927 69.3292499,12.4176995 69.8373187,13.3038143 C70.3554529,14.1898517 70.6144807,15.2078685 70.6144807,16.3578648 L70.6144807,24.9262246 L67.6105762,24.9262246 L67.3864629,23.0457299 C66.9281709,23.7432916 66.2606279,24.2805868 65.3838338,24.6576157 C64.5171051,25.0251899 63.6303242,25.2090157 62.7237269,25.2090157 C61.697524,25.2090157 60.7709531,25.0299173 59.9440144,24.6717204 C59.1270625,24.3041463 58.4794144,23.7715784 58.0012274,23.0740168 C57.5329486,22.3764552 57.2988485,21.5469916 57.2988485,20.585471 C57.2988485,19.1433063 57.8318449,18.1017301 58.8979165,17.4607422 C59.9738962,16.8197543 61.4235553,16.4992991 63.2468152,16.4992991 L67.296739,16.4992991 C67.2668572,15.7734506 67.1573169,15.1984912 66.9679609,14.7742658 C66.7786834,14.3406632 66.4648462,14.0248579 66.0264491,13.8269274 C65.5881307,13.6195421 64.9753971,13.5158495 64.188327,13.5158495 C63.39127,13.5158495 62.6938452,13.7044027 62.0960525,14.0814316 C61.5082465,14.4490833 61.0350136,14.9250774 60.6762751,15.5094916 L57.8817003,13.6007101 C58.6487969,12.6109801 59.5354991,11.8474675 60.5418071,11.3101722 C61.5580233,10.772877 62.7635955,10.5041906 64.1583666,10.5041906 Z M63.4559876,22.296322 C64.1733074,22.296322 64.8109687,22.1502378 65.3688929,21.8580695 C65.926817,21.5658237 66.3701681,21.17934 66.6989463,20.6986184 C67.027803,20.2084421 67.2320214,19.6758742 67.3116799,19.1009148 L67.3116799,18.9877674 L63.4559876,18.9877674 C62.6689175,18.9877674 62.0661707,19.1527611 61.6476686,19.4826711 C61.239232,19.8125811 61.0350136,20.2178969 61.0350136,20.6986184 C61.0350136,21.17934 61.239232,21.5658237 61.6476686,21.8580695 C62.0661707,22.1502378 62.6689175,22.296322 63.4559876,22.296322 Z" id="Shape" fill="#748ab7"></path>
        <path d="M75.2615681,24.7000073 C75.9589929,25.039372 76.7909644,25.2090157 77.7573251,25.2090157 C78.2654725,25.2090157 78.7636331,25.1666241 79.2519642,25.0817636 C79.7497316,24.996903 80.1586401,24.8979378 80.4771169,24.7848678 L80.4771169,21.6600615 C80.1782991,21.8014958 79.8448815,21.9240205 79.4760775,22.0277131 C79.1072735,22.121951 78.7486922,22.1690699 78.3999405,22.1690699 C77.8818849,22.1690699 77.4733697,22.0370904 77.1744733,21.7732089 C76.8855638,21.5092499 76.741109,21.0568152 76.741109,20.4158273 L76.741109,13.6855706 L80.4771169,13.6855706 L80.4771169,10.8011638 L76.741109,10.8011638 L76.741109,5.91258294 L73.1544313,7.29462446 L73.1544313,10.8011638 L70.688556,10.8011638 L70.688556,13.6855706 L73.0946678,13.6855706 L73.0946678,21.023801 C73.0946678,21.881629 73.2789911,22.626232 73.6475592,23.2578426 C74.0261927,23.8799209 74.5642219,24.3606425 75.2615681,24.7000073 Z" id="Path" fill="#748ab7" fill-rule="nonzero"></path>
        <path d="M81.7612467,10.8011638 L85.3187503,10.8011638 L85.3187503,13.1765622 C85.6270044,12.3470211 86.1554399,11.6966559 86.9024842,11.2253117 C87.6495285,10.7445901 88.652927,10.5041906 89.3236941,10.5041906 C89.3952531,10.5041906 89.4715303,10.5033381 89.5509529,10.5024081 C90.2193609,10.4945808 91.185014,10.4831886 92.6272027,10.9551528 L96.3930923,20.6137578 L100.218746,10.8011638 L104.223689,10.8011638 L95.7160343,30.750217 L91.779504,30.750217 L92.4030894,29.3907429 L93.0903701,27.7752922 L94.4649317,24.5444683 L90.1949837,14.5012396 C89.7907934,13.8693965 89.3480714,13.8693965 88.7708813,13.8693965 C88.1724595,13.8693965 87.6047059,14.0531448 87.066834,14.4207964 C86.5391848,14.7789932 86.1106173,15.339848 85.7819178,16.1033606 C85.4532183,16.8668732 85.2888685,17.818939 85.2888685,18.9594805 L85.2888685,24.9262246 L81.7612467,24.9262246 L81.7612467,10.8011638 Z" id="Path" fill="#748ab7" fill-rule="nonzero"></path>
        <path d="M109.051955,25.2090157 C108.035974,25.2090157 107.093912,25.0346446 106.227341,24.6859026 C105.370992,24.3277057 104.643607,23.8516341 104.045185,23.2578426 C103.457772,22.6545189 103.039428,21.9852441 102.790151,21.2500183 L105.689469,20.034071 C105.948182,20.693891 106.322491,21.2453685 106.810035,21.6883484 C107.298366,22.1314058 107.985647,22.3528957 108.872664,22.3528957 C109.400313,22.3528957 109.843822,22.2680352 110.202403,22.0983915 C110.571207,21.9287479 110.845647,21.7166352 111.024938,21.462131 C111.204229,21.198172 111.293874,20.9342905 111.293874,20.6703316 C111.293874,20.3687084 111.174347,20.1189316 110.935293,19.9209236 C110.705675,19.7229931 110.41708,19.5674542 110.067935,19.4543842 C109.719576,19.3318595 109.216304,19.1904253 108.558905,19.0301589 C107.572807,18.7851095 106.760495,18.5353327 106.122755,18.2808285 C105.495237,18.0263243 104.947143,17.6303858 104.479257,17.0930905 C104.020808,16.546418 103.79119,15.8158421 103.79119,14.9015179 C103.79119,13.9494521 104.045185,13.143548 104.553962,12.483728 C105.061952,11.823908 105.734292,11.3290043 106.570981,10.9990943 C107.417894,10.6691843 108.33951,10.5041906 109.335831,10.5041906 C110.601089,10.5041906 111.716937,10.772877 112.683376,11.3101722 C113.649816,11.8474675 114.422024,12.6015253 115,13.5724232 L112.175386,15.02877 C111.866346,14.5009296 111.477883,14.0720543 111.009997,13.7421444 C110.551548,13.4027796 109.953912,13.2331359 109.216304,13.2331359 C108.638328,13.2331359 108.170442,13.3509333 107.811861,13.5866054 C107.462716,13.8222 107.288144,14.1097185 107.288144,14.4490833 C107.288144,14.7130422 107.398234,14.9345322 107.61763,15.1136306 C107.836238,15.292729 108.110679,15.4388132 108.439378,15.5519606 C108.7783,15.6650306 109.250904,15.8064648 109.858762,15.9761085 C110.884965,16.2494447 111.731878,16.5322358 112.399499,16.8244816 C113.067121,17.1072727 113.645098,17.5456027 114.133429,18.1393942 C114.631196,18.7332632 114.880473,19.5203352 114.880473,20.5006879 C114.880473,21.5375368 114.601314,22.4094694 114.043783,23.1164083 C113.485466,23.8233472 112.763585,24.3512652 111.876568,24.7000073 C110.989552,25.039372 110.048276,25.2090157 109.051955,25.2090157 Z" id="Path" fill="#748ab7" fill-rule="nonzero"></path>
        <path d="M54.1245393,25.2090157 C53.1580999,25.2090157 52.3262071,25.039372 51.6287822,24.7000073 C50.9313574,24.3606425 50.3933282,23.8799209 50.0147734,23.2578426 C49.6461267,22.626232 49.4618033,21.881629 49.4618033,21.023801 L49.4618033,13.6855706 L47.0557702,13.6855706 L47.0557702,10.8011638 L49.5215668,10.8011638 L49.5215668,7.29462446 L53.1083231,5.91258294 L53.1083231,10.8011638 L56.8444096,10.8011638 L56.8444096,13.6855706 L53.1083231,13.6855706 L53.1083231,20.4158273 C53.1083231,21.0568152 53.2527779,21.5092499 53.5416875,21.7732089 C53.8405838,22.0370904 54.2490991,22.1690699 54.7671547,22.1690699 C55.0964046,22.1690699 55.4344618,22.1270659 55.7814836,22.0430578 C55.804524,22.9416498 56.037995,23.7216695 56.4819752,24.3830395 C56.5820005,24.5288137 56.6894176,24.667458 56.8041479,24.798895 C56.4914902,24.9061526 56.0964217,25.0004679 55.6190211,25.0817636 C55.1307687,25.1666241 54.6326081,25.2090157 54.1245393,25.2090157 Z" id="Path" fill="#748ab7"></path>
      </g>
    </g>
  </g>
</svg>
