<svg width="124px" height="40px" viewBox="0 0 124 40" version="1.1" xmlns="http://www.w3.org/2000/svg" xmlns:xlink="http://www.w3.org/1999/xlink">
  <g id="Page-1" stroke="none" stroke-width="1" fill="none" fill-rule="evenodd">
    <g id="Group-2">
      <rect id="Rectangle-Copy-5" fill-opacity="0" fill="#FFFFFF" x="0" y="0" width="124" height="40"></rect>
      <g id="Group" transform="translate(0.000000, 7.000000)" fill="#748ab7" fill-rule="nonzero">
        <path d="M61.8596491,7 C57.0175439,7 53.5263158,10.15 53.5263158,14.875 C53.5263158,19.6 57.4561404,22.75 62.2982456,22.75 C65.2236842,22.75 67.8026316,21.595 69.3991228,19.648125 L66.0438596,17.714375 C65.1578947,18.68125 63.8114035,19.245625 62.2982456,19.245625 C60.1973684,19.245625 58.4122807,18.151875 57.75,16.401875 L70.0394737,16.401875 C70.1359649,15.911875 70.1929825,15.404375 70.1929825,14.870625 C70.1929825,10.15 66.7017544,7 61.8596491,7 Z M57.7105263,13.34375 C58.2587719,11.598125 59.7587719,10.5 61.8552632,10.5 C63.9561404,10.5 65.4561404,11.598125 66,13.34375 L57.7105263,13.34375 L57.7105263,13.34375 Z M109.087719,7 C104.245614,7 100.754386,10.15 100.754386,14.875 C100.754386,19.6 104.684211,22.75 109.526316,22.75 C112.451754,22.75 115.030702,21.595 116.627193,19.648125 L113.27193,17.714375 C112.385965,18.68125 111.039474,19.245625 109.526316,19.245625 C107.425439,19.245625 105.640351,18.151875 104.97807,16.401875 L117.267544,16.401875 C117.364035,15.911875 117.421053,15.404375 117.421053,14.870625 C117.421053,10.15 113.929825,7 109.087719,7 L109.087719,7 Z M104.942982,13.34375 C105.491228,11.598125 106.991228,10.5 109.087719,10.5 C111.188596,10.5 112.688596,11.598125 113.232456,13.34375 L104.942982,13.34375 L104.942982,13.34375 Z M87.8245614,14.875 C87.8245614,17.5 89.5438596,19.25 92.2105263,19.25 C94.0175439,19.25 95.372807,18.431875 96.0701754,17.0975 L99.4385965,19.035625 C98.0438596,21.354375 95.4298246,22.75 92.2105263,22.75 C87.3640351,22.75 83.877193,19.6 83.877193,14.875 C83.877193,10.15 87.3684211,7 92.2105263,7 C95.4298246,7 98.0394737,8.395625 99.4385965,10.714375 L96.0701754,12.6525 C95.372807,11.318125 94.0175439,10.5 92.2105263,10.5 C89.5482456,10.5 87.8245614,12.25 87.8245614,14.875 Z M124,2.1875 L124,22.3125 L120.052632,22.3125 L120.052632,2.1875 L124,2.1875 Z M16.2061404,0 L32.4122807,28 L0,28 L16.2061404,0 Z M56.7236842,2.1875 L44.5701754,23.1875 L32.4166667,2.1875 L36.9736842,2.1875 L44.5701754,15.3125 L52.1666667,2.1875 L56.7236842,2.1875 L56.7236842,2.1875 Z M82.5614035,7.4375 L82.5614035,11.676875 C82.122807,11.55 81.6578947,11.4625 81.1578947,11.4625 C78.6096491,11.4625 76.7719298,13.2125 76.7719298,15.8375 L76.7719298,22.3125 L72.8245614,22.3125 L72.8245614,7.4375 L76.7719298,7.4375 L76.7719298,11.4625 C76.7719298,9.24 79.3640351,7.4375 82.5614035,7.4375 Z" id="Shape"></path>
      </g>
    </g>
  </g>
</svg>
